<svg xmlns="http://www.w3.org/2000/svg" viewBox="0 0 24 24" fill="none">
  <path d="M4.5 7.2A2.7 2.7 0 0 1 7.2 4.5h9.6a2.7 2.7 0 0 1 2.7 2.7v5.6a2.7 2.7 0 0 1-2.7 2.7H11l-4.3 3v-3A2.7 2.7 0 0 1 4.5 12.8V7.2Z" fill="#ffffff"/>
  <path d="M8 9.2h8M8 12.2h5.2" stroke="#111111" stroke-width="1.7" stroke-linecap="round"/>
  <path d="M4.5 7.2A2.7 2.7 0 0 1 7.2 4.5h9.6a2.7 2.7 0 0 1 2.7 2.7v5.6a2.7 2.7 0 0 1-2.7 2.7H11l-4.3 3v-3A2.7 2.7 0 0 1 4.5 12.8V7.2Z" stroke="#111111" stroke-width="1.7" stroke-linejoin="round"/>
</svg>
